<?xml version="1.0" encoding="utf-8"?>
<!-- Generator: Adobe Illustrator 17.0.0, SVG Export Plug-In . SVG Version: 6.00 Build 0)  -->
<!DOCTYPE svg PUBLIC "-//W3C//DTD SVG 1.1//EN" "http://www.w3.org/Graphics/SVG/1.1/DTD/svg11.dtd">
<svg version="1.1" xmlns="http://www.w3.org/2000/svg" xmlns:xlink="http://www.w3.org/1999/xlink" x="0px" y="0px"
	 width="567.25px" height="121.505px" viewBox="0 0 567.25 121.505" enable-background="new 0 0 567.25 121.505"
	 xml:space="preserve">
<g id="bg-big" display="none">
	<polygon display="inline" fill="#FFCF1E" points="193,72.441 168,87.129 143,72.441 143,43.064 168,28.376 193,43.064 	"/>
	<polygon display="inline" fill="#FFCF1E" points="250,72.441 225,87.129 200,72.441 200,43.064 225,28.376 250,43.064 	"/>
	<polygon display="inline" fill="#FFCF1E" points="307,72.441 282,87.129 257,72.441 257,43.064 282,28.376 307,43.064 	"/>
	<polygon display="inline" fill="#FFCF1E" points="364,72.441 339,87.129 314,72.441 314,43.064 339,28.376 364,43.064 	"/>
	<polygon display="inline" fill="#FFCF1E" points="396,28.376 371,43.064 371,72.441 396,87.129 421,72.441 421,43.064 	"/>
</g>
<g id="bg-small" display="none" opacity="0.7">
	<polygon display="inline" fill="#FCEE21" points="416,70.503 396,82.253 376,70.503 376,47.002 396,35.251 416,47.002 	"/>
	<polygon display="inline" fill="#FCEE21" points="188,69.503 168,81.253 148,69.503 148,46.002 168,34.251 188,46.002 	"/>
	<polygon display="inline" fill="#FCEE21" points="245,69.503 225,81.253 205,69.503 205,46.002 225,34.251 245,46.002 	"/>
	<polygon display="inline" fill="#FCEE21" points="302,69.503 282,81.253 262,69.503 262,46.002 282,34.251 302,46.002 	"/>
	<polygon display="inline" fill="#FCEE21" points="359,69.503 339,81.253 319,69.503 319,46.002 339,34.251 359,46.002 	"/>
</g>
<g id="char-bee">
	<polygon fill="#FFCF1E" points="101.25,35.314 111.25,29.407 55.625,0.016 0,29.376 0,87.752 10,82.253 10,35.752 55.625,11.75 	
		"/>
	<polygon fill="#FFCF1E" points="114,29.188 124,35.251 124,81.752 164,105.754 204,82.253 204,35.752 214,29.376 214,87.752 
		164,117.505 114,88.129 	"/>
	<polygon fill="#FFCF1E" points="567.25,29.376 557.25,37.72 511.625,13.985 466,37.251 466,64.252 506,64.252 506,74.252 
		466,74.252 466,83.752 511.625,107.754 554.438,84.253 565.844,88.129 510.922,117.505 456,88.129 456,29.752 511.625,0 	"/>
	<polygon fill="#FFCF1E" points="329.25,35.314 339.25,29.407 283.625,0.016 228,29.376 228,87.752 283.625,117.505 336.438,88.129 
		327.844,82.253 282.922,105.754 238,82.253 238,35.752 283.625,11.75 	"/>
	<polyline fill="#FFCF1E" points="342,30.126 352,35.251 352,64.252 432,64.252 432,35.752 442,29.376 442,87.752 432,82.253 
		432,74.252 352,74.252 352,81.752 342,88.129 342,29.252 	"/>
</g>
<g id="char-black">
	<g>
		<polygon fill="#220000" points="101.25,39.314 111.25,33.407 59.625,4.016 8,33.376 8,91.752 18,86.253 18,39.752 59.625,15.75 		
			"/>
		<polygon fill="#220000" points="122,33.188 132,39.251 132,85.752 172,109.754 212,86.253 212,39.752 222,33.376 222,91.752 
			172,121.505 122,92.129 		"/>
		<polygon fill="#220000" points="567.25,33.376 557.25,41.72 515.625,17.985 474,41.251 474,60.252 514,60.252 514,70.252 
			474,70.252 474,87.752 515.625,111.754 556.438,88.253 566.844,92.129 515.422,121.505 464,92.129 464,33.752 515.625,4 		"/>
		<polygon fill="#220000" points="329.25,39.314 339.25,33.407 287.625,4.016 236,33.376 236,91.752 287.625,121.505 
			338.438,92.129 328.844,86.253 287.422,109.754 246,86.253 246,39.752 287.625,15.75 		"/>
		<polyline fill="#220000" points="350,34.126 360,39.251 360,60.252 440,60.252 440,39.752 450,33.376 450,91.752 440,86.253 
			440,70.252 360,70.252 360,85.752 350,92.129 350,33.252 		"/>
	</g>
</g>
</svg>
